# xmcd
#
# Track frame offsets:
#	150
#	15870
#	34867
#	51287
#	68917
#	84130
#	98455
#	115930
#	134165
#	151052
#
# Disc length: 2258 seconds
# Revision: 0
# Processed by: cddbd v1.5.2PL0 Copyright (c) Steve Scherf et al.
# Submitted via: dBpowerAMP V12.0
#
DISCID=7108d00a
DTITLE=Donna Summer - Another Place and Time
DYEAR=1989
DGENRE=R&B
TTITLE0=I Don't Wanna Get Hurt
TTITLE1=When Love Takes Over You
TTITLE2=This Time I Know It's for Real
TTITLE3=The Only One
TTITLE4=In Another Place and Time
TTITLE5=Sentimental
TTITLE6=Whatever Your Heart Desires
TTITLE7=Breakaway
TTITLE8=If It Makes You Feel Good
TTITLE9=Love's About to Change My Heart
EXTD=
EXTT0=
EXTT1=
EXTT2=
EXTT3=
EXTT4=
EXTT5=
EXTT6=
EXTT7=
EXTT8=
EXTT9=
PLAYORDER=
